<svg fill="none" height="40" viewBox="0 0 40 40" width="40" xmlns="http://www.w3.org/2000/svg"><g clip-rule="evenodd" fill="rgb(0,0,0)" fill-rule="evenodd"><path d="m14.4659 8.94903c-.2843.25803-.5845.98936-.2033 2.51447l.0027.0108c.4702 1.9541 1.888 4.5244 4.0838 6.9932 2.2148 2.4711 4.5996 4.166 6.4737 4.8395l.0114.0041.0113.0043c1.3313.5079 2.0727.3885 2.4118.1833l.1128-.1c.1664-.1478.3374-.434.3742-1.0007.0372-.5738-.0744-1.3402-.384-2.2662-.6176-1.8472-1.9445-4.0942-3.8745-6.2475-1.932-2.1556-4.0137-3.7263-5.7771-4.54957-.8839-.41266-1.6313-.61114-2.2053-.64022-.5635-.02855-.8688.10618-1.0375.25452zm4.3004-1.87957c2.1365.99751 4.4799 2.80184 6.5812 5.14624 2.1033 2.3467 3.6348 4.8831 4.3838 7.1234.3738 1.1178.5726 2.2212.5077 3.2208-.0524.8089-.2846 1.6077-.789 2.259v.0886l-.4148.3726c-1.3577 1.2191-3.3343 1.0349-5.0694.3755-2.3894-.862-5.099-2.8643-7.48-5.5214l-.0031-.0034c-2.3682-2.6621-4.0492-5.5887-4.6468-8.0663-.4494-1.8023-.3847-3.7684.9623-4.97787l.0051-.00466c.7986-.70907 1.8202-.93524 2.8266-.88426.9989.05061 2.0703.37399 3.1364.87175z"/><path d="m13.6093 7.67518c.6305.28132.9135 1.02045.6322 1.65088l-7.81665 17.51664-.00117.0026c-.65062 1.4491.7296 3.0286 2.28569 2.5453l.00201-.0006 18.29522-5.7819c.6583-.208 1.3606.157 1.5686.8152.208.6583-.1569 1.3606-.8152 1.5686l-18.29998 5.7833-.00472.0015c-3.5759 1.1146-6.86045-2.5041-5.31296-5.9539-.00022.0005.00022-.0005 0 0l7.81616-17.5155c.2813-.63044 1.0204-.91345 1.6508-.63212z"/><path d="m19.1093 26.2906c.6587-.2066 1.3602.1599 1.5668.8187l.8828 2.8149c.0001.0003-.0002-.0004 0 0 .6899 2.1907-.5409 4.5603-2.7331 5.2513l-2.8167.8834c.0004-.0002-.0003.0001 0 0-2.1907.6899-4.5603-.541-5.2512-2.7331l-.88392-2.8184c-.20658-.6588.15992-1.3602.81872-1.5668.6587-.2066 1.3601.1599 1.5667.8187l.8828 2.8149c.0001.0003-.0001-.0003 0 0 .2759.8737 1.24 1.3762 2.1154 1.1003l2.8166-.8833c.0003-.0001-.0003.0001 0 0 .8737-.2759 1.3762-1.24 1.1003-2.1154l-.8839-2.8184c-.2066-.6588.16-1.3602.8187-1.5668z"/><path d="m34.4456 5.66112c.4909.48539.4954 1.27683.01 1.76774l-1.4667 1.48336c-.4854.4909-1.2768.49538-1.7677.00999-.491-.48538-.4954-1.27683-.01-1.76774l1.4666-1.48335c.4854-.49091 1.2769-.49539 1.7678-.01z"/><path d="m26.5182 3.86248c.6283.2862.9055 1.0275.6193 1.65573l-.6833 1.49999c-.2862.62824-1.0275.90551-1.6557.61931-.6283-.2862-.9055-1.0275-.6193-1.65573l.6833-1.49999c.2862-.62824 1.0275-.90551 1.6557-.61931z"/><path d="m36.1019 13.4097c.326.6085.0969 1.3661-.5116 1.6921l-1.4.7501c-.6085.326-1.3661.0969-1.6921-.5116s-.097-1.3661.5115-1.6921l1.4-.7501c.6085-.326 1.3661-.0969 1.6922.5116z"/></g></svg>