<svg id="Layer_2" enable-background="new 0 0 64 64" viewBox="0 0 64 64" xmlns="http://www.w3.org/2000/svg"><g><path d="m47.7 17.6c-5.5-9.6-12.7-15.1-16.6-12.8-.8.5-1.4 1.3-1.8 2.3l-1.2 2.7c-3.2 7.2-8.3 13.5-14.7 18l-6.2 3.6c-1.4.8-2.4 2.1-2.8 3.6s-.2 3.2.6 4.5l2.3 3.9c.8 1.4 2.1 2.4 3.6 2.8.5.1 1 .2 1.6.2.4 0 .9-.1 1.3-.2l9.3 12.9c.7 1 1.9 1.5 3 1.5.6 0 1.3-.2 1.9-.5l2.2-1.3c.9-.5 1.6-1.4 1.8-2.5.2-1 0-2.1-.6-3l-8.6-11.9c6.9-2.9 14.4-4.1 21.9-3.2l2.9.3c.3.1.6.1.9.1.7 0 1.4-.2 2-.5 2-1.2 2.7-4.1 2.1-8.2-.7-3.5-2.4-8-4.9-12.3zm-1.9 18.4c-1.6-.9-3.4-2.4-5.3-4.5 2.5-2.5 2.9-6.7.8-10.3s-5.9-5.3-9.3-4.4c-.5-1.5-.8-2.9-1-4.2-.2-1-.2-1.9-.2-2.6 2.4-.5 7.5 3.7 11.5 10.7 2.1 3.6 3.5 7.3 4 10.4.4 2.3.2 4.1-.5 4.9zm-6.6-6c-1.2-1.6-2.5-3.4-3.7-5.4-1.1-2-2.1-3.9-2.8-5.9 2.5-.5 5.4.9 6.9 3.5 1.5 2.7 1.3 5.9-.4 7.8zm-27.8 14.4c-1-.3-1.9-.9-2.4-1.9l-2.3-3.9c-.5-.9-.7-2-.4-3s.9-1.9 1.9-2.4l5.4-3.1 6.2 10.8-5.4 3.1c-.9.5-2 .7-3 .4zm9.5-1.8 4.4 6.1-1.4.8h-.1l-4.4-6zm9.1 13.5c-.1.5-.4.9-.8 1.1l-2.2 1.4c-.8.4-1.8.2-2.3-.5l-9.1-12.5 2-1.2 4.5 6.2c.4.6 1 .9 1.7.9.4 0 .7-.1 1-.3l1.6-.9 3.3 4.5c.3.4.4.8.3 1.3zm-8.4-16.1-6.4-11c5.8-4.3 10.5-10 13.8-16.4v.4c.6 3.8 2.3 8.3 4.8 12.6 2.7 4.7 5.8 8.4 8.8 10.7-7.2-.5-14.4.8-21 3.7zm27.8-3.4c-.5.3-1 .3-1.7.2h-.1c.8-1.3 1.1-3.4.6-6-.5-3.3-2-7.3-4.3-11.1-3.6-6.2-9-11.8-13-11.7.2-.7.6-1.2 1-1.4.3-.2.6-.3 1-.3 2.9 0 8.3 4.5 12.8 12.3 2.4 4.1 4 8.4 4.6 11.9.8 3.1.3 5.4-.9 6.1z"/><path d="m13.4 35c-.3-.5-.9-.6-1.4-.4l-2.2 1.3c-.5.3-.6.9-.4 1.4.2.3.5.5.9.5.2 0 .3 0 .5-.1l2.2-1.3c.5-.4.7-1 .4-1.4z"/><path d="m15.5 38.5c-.3-.5-.9-.6-1.4-.4l-2.2 1.3c-.5.3-.6.9-.4 1.4.2.3.5.5.9.5.2 0 .3 0 .5-.1l2.2-1.3c.5-.3.7-.9.4-1.4z"/><path d="m51.7 16.3c.2 0 .3 0 .5-.1l3.8-2.2c.5-.3.6-.9.4-1.4-.3-.5-.9-.6-1.4-.4l-3.8 2.2c-.5.3-.6.9-.4 1.4.2.3.5.5.9.5z"/><path d="m45.5 9.4h.3c.4 0 .8-.3 1-.7l1.1-4.2c.1-.5-.2-1.1-.7-1.2s-1.1.2-1.2.7l-1.1 4.2c-.3.5 0 1 .6 1.2z"/><path d="m59.1 24-4.2-1.1c-.5-.1-1.1.2-1.2.7s.2 1.1.7 1.2l4.2 1.1h.3c.4 0 .8-.3 1-.7.1-.5-.3-1.1-.8-1.2z"/></g></svg>