<?xml version="1.0" encoding="UTF-8"?>
<svg id="Layer_1" data-name="Layer 1" xmlns="http://www.w3.org/2000/svg" viewBox="0 0 32 32">
  <defs>
    <style>
      .cls-1 {
        fill: #e64c3b;
        isolation: isolate;
      }

      .cls-2 {
        fill: #924b9a;
      }
    </style>
  </defs>
  <path class="cls-2" d="M29.33,11.36v-6.05c0-1.88-.85-2.64-2.97-2.64h-5.39c-2.12,0-2.97.76-2.97,2.64v6.04c0,1.89.85,2.64,2.97,2.64h5.39c2.12.01,2.97-.75,2.97-2.63Z"/>
  <path class="cls-1" d="M29.33,26.36v-5.39c0-2.12-.85-2.97-2.97-2.97h-5.39c-2.12,0-2.97.85-2.97,2.97v5.39c0,2.12.85,2.97,2.97,2.97h5.39c2.12,0,2.97-.85,2.97-2.97Z"/>
  <path class="cls-1" d="M14,11.36v-6.05c0-1.88-.85-2.64-2.97-2.64h-5.39c-2.12,0-2.97.76-2.97,2.64v6.04c0,1.89.85,2.64,2.97,2.64h5.39c2.12.01,2.97-.75,2.97-2.63Z"/>
  <path class="cls-2" d="M14,26.36v-5.39c0-2.12-.85-2.97-2.97-2.97h-5.39c-2.12,0-2.97.85-2.97,2.97v5.39c0,2.12.85,2.97,2.97,2.97h5.39c2.12,0,2.97-.85,2.97-2.97Z"/>
</svg>